<?xml version="1.0" standalone="no"?>
<!DOCTYPE svg PUBLIC "-//W3C//DTD SVG 20010904//EN"
 "http://www.w3.org/TR/2001/REC-SVG-20010904/DTD/svg10.dtd">
<svg version="1.0" xmlns="http://www.w3.org/2000/svg"
 width="2400.000000pt" height="2400.000000pt" viewBox="0 0 2400.000000 2400.000000"
 preserveAspectRatio="xMidYMid meet">
<metadata>
Created by potrace 1.11, written by Peter Selinger 2001-2013
</metadata>
<g transform="translate(0.000000,2400.000000) scale(0.100000,-0.100000)"
fill="#000000" stroke="none">
<path d="M11699 22506 c-2 -2 -71 -7 -154 -11 -82 -4 -172 -8 -200 -10 -27 -2
-90 -6 -140 -9 -84 -6 -129 -10 -245 -21 -25 -2 -74 -7 -110 -10 -36 -3 -78
-7 -95 -9 -16 -2 -59 -7 -95 -11 -107 -11 -143 -15 -180 -20 -333 -44 -331
-44 -400 -55 -30 -5 -73 -11 -95 -15 -22 -3 -76 -12 -120 -20 -44 -8 -98 -17
-120 -20 -23 -3 -52 -8 -65 -10 -14 -3 -38 -8 -55 -10 -16 -3 -100 -20 -185
-36 -85 -17 -164 -32 -175 -34 -37 -5 -468 -105 -630 -145 -88 -23 -168 -43
-178 -45 -78 -18 -469 -132 -677 -197 -332 -104 -765 -255 -955 -333 -16 -7
-68 -27 -115 -45 -47 -17 -98 -38 -115 -46 -16 -7 -102 -43 -190 -80 -88 -36
-182 -76 -210 -89 -27 -12 -72 -32 -100 -45 -359 -160 -800 -380 -1155 -578
-377 -209 -876 -520 -1165 -725 -44 -32 -88 -63 -98 -70 -80 -54 -402 -295
-507 -380 -8 -7 -51 -41 -95 -77 -88 -70 -253 -209 -300 -252 -16 -15 -40 -36
-52 -46 -129 -110 -526 -497 -653 -637 -97 -106 -144 -160 -190 -215 -25 -30
-59 -70 -75 -90 -86 -101 -258 -329 -351 -465 -42 -60 -174 -274 -174 -281 0
-2 -10 -18 -23 -37 -36 -53 -173 -335 -218 -449 -90 -227 -131 -374 -174 -638
-11 -65 -13 -334 -4 -415 8 -67 19 -131 44 -246 20 -93 83 -264 143 -389 136
-284 388 -606 676 -865 13 -12 149 -129 191 -164 122 -103 433 -318 647 -446
54 -33 96 -60 95 -61 -1 -1 -31 -5 -67 -8 -36 -4 -74 -9 -85 -11 -18 -4 -50
-8 -154 -20 -19 -3 -48 -6 -65 -9 -26 -4 -170 -23 -306 -41 -19 -3 -69 -10
-110 -15 -41 -6 -95 -13 -120 -16 -25 -3 -56 -7 -70 -9 -14 -2 -47 -7 -75 -10
-27 -4 -61 -8 -75 -10 -14 -2 -47 -7 -75 -10 -27 -3 -133 -17 -235 -31 -102
-14 -201 -27 -220 -29 -166 -21 -344 -46 -348 -50 -1 -1 17 -31 40 -65 24 -35
52 -77 63 -95 11 -17 83 -125 160 -239 77 -114 145 -215 150 -223 6 -9 156
-235 334 -502 178 -267 326 -493 328 -502 9 -33 -62 -75 -166 -100 -109 -26
-107 -25 -141 -32 -27 -6 -204 -48 -425 -102 -77 -18 -151 -36 -165 -39 -14
-2 -160 -37 -325 -76 -389 -92 -423 -100 -468 -111 l-37 -10 199 -202 c109
-111 251 -256 315 -322 65 -66 142 -145 173 -177 l55 -56 -17 -34 c-60 -117
-148 -354 -185 -500 -27 -102 -59 -294 -67 -393 -13 -156 -7 -413 12 -535 28
-175 50 -271 92 -405 42 -132 112 -303 181 -435 35 -69 68 -130 73 -135 4 -6
6 -62 3 -125 -3 -63 -5 -308 -6 -545 -1 -375 3 -599 17 -1060 2 -60 6 -213 9
-340 7 -269 15 -444 21 -477 3 -13 8 -43 11 -68 10 -75 60 -260 97 -355 201
-524 630 -1008 1290 -1457 111 -75 198 -131 252 -162 11 -6 38 -23 60 -37 22
-14 63 -38 90 -54 28 -15 91 -50 140 -78 110 -61 443 -228 580 -290 182 -82
216 -97 220 -97 2 0 28 -11 57 -25 110 -51 682 -271 730 -280 10 -2 32 -10 50
-18 18 -9 78 -29 133 -47 55 -17 109 -35 120 -40 11 -4 29 -10 40 -13 11 -2
108 -32 215 -65 208 -64 509 -150 705 -201 146 -38 481 -120 513 -126 12 -2
30 -6 40 -9 14 -5 136 -32 232 -52 14 -3 86 -18 160 -34 160 -34 180 -38 245
-49 28 -5 61 -12 75 -15 14 -3 39 -8 55 -11 17 -3 53 -10 80 -15 244 -45 347
-63 450 -80 66 -11 131 -22 145 -25 14 -2 41 -6 60 -9 19 -2 67 -10 105 -16
39 -7 81 -13 95 -15 14 -2 77 -11 140 -20 63 -9 131 -18 150 -21 19 -2 46 -6
60 -9 14 -2 45 -7 70 -10 25 -3 61 -7 80 -10 19 -3 55 -7 80 -10 25 -4 56 -8
70 -10 14 -2 70 -9 125 -15 55 -6 116 -13 135 -15 19 -3 58 -7 85 -10 28 -4
64 -8 81 -10 17 -2 66 -7 110 -10 43 -4 88 -9 99 -11 11 -2 53 -6 95 -9 41 -4
86 -8 100 -10 14 -2 61 -6 105 -10 44 -3 99 -8 122 -11 41 -4 60 -6 233 -19
47 -4 101 -8 120 -10 19 -2 85 -6 145 -10 61 -4 126 -8 145 -10 19 -2 98 -6
175 -10 77 -4 158 -9 180 -10 47 -3 316 -16 430 -20 670 -27 1841 -26 2440 0
44 2 143 6 220 9 77 4 176 8 220 11 44 3 121 7 170 10 191 11 262 15 315 20
30 3 93 7 140 10 47 3 105 8 130 10 25 2 79 7 120 10 41 3 95 8 120 10 25 2
74 7 110 10 107 9 173 16 215 20 22 2 87 9 145 15 182 18 204 21 230 25 14 2
54 7 90 11 36 3 81 8 100 10 85 10 357 45 380 49 14 2 48 6 75 10 28 3 61 8
75 10 62 9 248 36 280 41 19 2 60 9 90 14 30 5 73 12 95 15 69 10 338 55 390
65 28 5 61 11 75 14 14 2 54 9 90 16 36 7 76 14 90 16 42 7 134 25 145 28 6 2
33 7 60 11 56 10 50 9 90 18 17 4 41 9 55 11 49 9 218 46 420 91 113 26 212
48 220 50 185 40 704 178 1000 266 351 105 915 296 1075 364 17 7 100 41 185
75 570 227 1166 537 1575 818 559 385 948 790 1173 1223 73 141 157 367 178
479 2 14 7 36 9 50 9 43 17 84 21 110 30 189 18 2522 -13 2573 -3 4 22 63 55
130 34 67 72 148 86 179 44 100 123 341 140 430 2 12 9 43 15 68 5 25 13 68
17 95 3 28 8 53 9 56 8 13 19 204 19 329 0 129 -9 284 -18 312 -3 7 -7 36 -10
63 -5 41 -27 152 -40 200 -38 144 -72 243 -122 367 -46 111 -141 302 -187 375
-15 24 -27 47 -27 52 0 5 -3 11 -7 13 -5 2 -35 44 -67 93 -54 82 -150 213
-201 274 -139 168 -361 399 -487 509 -43 37 -78 69 -78 72 0 6 98 109 380 401
310 320 368 383 367 394 -1 6 -51 31 -112 57 -60 27 -123 55 -140 63 -16 8
-42 19 -58 25 l-27 10 7 82 c10 122 4 343 -12 367 -2 4 -6 22 -9 41 -16 99
-75 261 -139 380 -88 165 -198 309 -356 467 l-100 100 76 62 c457 371 786 799
932 1215 35 98 78 259 86 321 3 22 9 69 14 105 10 71 7 345 -4 425 -23 172
-85 407 -151 578 -168 437 -493 952 -879 1397 -236 271 -594 631 -833 838 -15
13 -38 33 -52 45 -14 13 -56 49 -95 81 -38 33 -72 62 -75 66 -8 10 -339 272
-405 321 -33 24 -62 46 -65 49 -3 3 -23 18 -45 35 -22 16 -44 33 -50 38 -5 4
-75 54 -155 111 -573 405 -1136 743 -1785 1071 -276 139 -347 173 -565 273
-128 58 -151 68 -300 132 -633 271 -1498 571 -2060 715 -230 59 -686 170 -741
180 -13 2 -55 11 -94 19 -38 9 -81 18 -95 20 -14 3 -50 10 -80 16 -30 7 -64
13 -75 15 -33 5 -86 15 -160 30 -38 8 -86 16 -105 19 -19 3 -73 12 -120 20
-47 8 -103 17 -124 20 -21 4 -48 8 -60 11 -12 2 -41 7 -66 10 -25 3 -56 7 -70
9 -32 5 -102 15 -160 21 -25 3 -74 10 -110 15 -36 5 -87 12 -115 15 -27 2 -90
9 -140 15 -118 12 -204 21 -385 36 -36 3 -87 7 -115 9 -27 3 -97 7 -155 10
-58 4 -125 9 -150 11 -54 7 -1315 15 -1321 10z"/>
</g>
</svg>
